<svg width="120" height="120" viewBox="0 0 120 120" fill="none" xmlns="http://www.w3.org/2000/svg">
<path d="M60 0L111.962 30V90L60 120L8.03848 90V30L60 0Z" fill="#FBFBFB"/>
<path d="M55.4643 96.0001C71.737 96.0001 84.9286 82.8085 84.9286 66.5358C84.9286 50.2631 71.737 37.0715 55.4643 37.0715C39.1916 37.0715 26 50.2631 26 66.5358C26 82.8085 39.1916 96.0001 55.4643 96.0001Z" fill="#8BC34A"/>
<path d="M55.4643 95.9999C59.3336 95.9999 63.165 95.2378 66.7398 93.7571C70.3145 92.2764 73.5627 90.1061 76.2987 87.37C79.0347 84.634 81.205 81.3859 82.6857 77.8111C84.1664 74.2364 84.9286 70.4049 84.9286 66.5356H26C26 74.3501 29.1043 81.8444 34.6299 87.37C40.1555 92.8957 47.6499 95.9999 55.4643 95.9999Z" fill="#FFEB3B"/>
<path d="M55.4643 21V66.5357L87.6473 34.3527C83.4267 30.1171 78.4109 26.757 72.888 24.4655C67.365 22.1741 61.4437 20.9964 55.4643 21Z" fill="#E91E63"/>
<path d="M81.9688 93.0402C85.4544 89.5624 88.2198 85.4312 90.1066 80.8831C91.9934 76.3351 92.9647 71.4596 92.9647 66.5357C92.9647 61.6118 91.9934 56.7363 90.1066 52.1883C88.2198 47.6402 85.4544 43.5091 81.9688 40.0312L55.4643 66.5357L81.9688 93.0402Z" fill="#03A9F4"/>
</svg>
