<svg width="81" height="70" viewBox="0 0 81 70" fill="none" xmlns="http://www.w3.org/2000/svg">
<g clip-path="url(#clip0_1_1859)">
<path d="M74.0411 60C73.2881 60 72.7861 59.5 72.7861 58.75V16.25C72.7861 14.25 71.0292 12.5 69.0213 12.5H58.9819C58.2289 12.5 57.7269 12 57.7269 11.25C57.7269 10.5 58.2289 10 58.9819 10H69.0213C72.5352 10 75.296 12.75 75.296 16.25V58.75C75.296 59.5 74.794 60 74.0411 60ZM6.27465 60C5.52169 60 5.01971 59.5 5.01971 58.75V16.25C5.01971 12.75 7.78057 10 11.2944 10H21.3339C22.0868 10 22.5888 10.5 22.5888 11.25C22.5888 12 22.0868 12.5 21.3339 12.5H11.2944C9.28649 12.5 7.52958 14.25 7.52958 16.25V58.75C7.52958 59.5 7.02761 60 6.27465 60Z" fill="#FBFBFB"/>
<path d="M56.472 0H23.8437C21.8358 0 20.0789 1.75 20.0789 3.75V23.75C20.0789 25.75 21.8358 27.5 23.8437 27.5H56.472C58.4799 27.5 60.2368 25.75 60.2368 23.75V3.75C60.2368 1.75 58.4799 0 56.472 0ZM56.221 2.5L45.4286 15C42.6677 18.25 37.648 18.25 34.8871 15L24.0947 2.5H56.221ZM56.472 25H23.8437C23.0908 25 22.5888 24.5 22.5888 23.75V4.75L32.8792 16.75C34.8871 18.75 37.397 20 40.1579 20C42.9187 20 45.4286 18.75 47.4365 16.75L57.7269 4.75V23.75C57.7269 24.5 57.225 25 56.472 25Z" fill="#FBFBFB"/>
<path d="M22.5888 26.5C22.3378 26.5 21.8358 26.25 21.5848 26C21.0829 25.5 21.3338 24.75 21.8358 24.25L33.1302 15.25C33.6322 14.75 34.3852 15 34.8871 15.5C35.3891 16 35.1381 16.75 34.6361 17.25L23.3417 26.25C23.0908 26.5 22.8398 26.5 22.5888 26.5ZM57.7269 26.5C57.4759 26.5 57.225 26.5 56.974 26.25L45.6796 17.25C45.1776 16.75 45.1776 16 45.4286 15.5C45.9306 15 46.6835 15 47.1855 15.25L58.4799 24.25C58.9819 24.75 58.9819 25.5 58.7309 26C58.4799 26.25 57.9779 26.5 57.7269 26.5Z" fill="#FBFBFB"/>
<path d="M25.0987 50C27.871 50 30.1184 47.7614 30.1184 45C30.1184 42.2386 27.871 40 25.0987 40C22.3263 40 20.0789 42.2386 20.0789 45C20.0789 47.7614 22.3263 50 25.0987 50Z" fill="#FBFBFB"/>
<path d="M48.9424 45H36.3931C35.6401 45 35.1382 44.5 35.1382 43.75C35.1382 43 35.6401 42.5 36.3931 42.5H48.9424C49.6954 42.5 50.1974 43 50.1974 43.75C50.1974 44.5 49.6954 45 48.9424 45ZM58.9819 52.5H36.3931C35.6401 52.5 35.1382 52 35.1382 51.25C35.1382 50.5 35.6401 50 36.3931 50H58.9819C59.7349 50 60.2368 50.5 60.2368 51.25C60.2368 52 59.7349 52.5 58.9819 52.5ZM48.4405 62.5L53.4602 57.5H26.8556L31.8753 62.5H48.4405Z" fill="#FBFBFB"/>
<path d="M15.0592 36.25C15.0592 35.5 15.5612 35 16.3141 35H64.0016C64.7546 35 65.2565 35.5 65.2565 36.25V55H67.7664V36.25C67.7664 34.25 66.0095 32.5 64.0016 32.5H16.3141C14.3062 32.5 12.5493 34.25 12.5493 36.25V55H15.0592V36.25Z" fill="#FBFBFB"/>
<path d="M27.3576 52.5H22.8398C21.3339 52.5 20.0789 53.25 19.577 54.5L19.326 55H30.8714L30.6204 54.5C30.1184 53.25 28.8635 52.5 27.3576 52.5ZM76.551 57.5H56.974L49.6954 64.75C49.4444 65 49.1934 65 48.6914 65H31.1224C30.8714 65 30.3694 64.75 30.1184 64.75L23.3418 57.5H3.7648C1.75691 57.5 0 59.25 0 61.25C0 66 4.01579 70 8.78454 70H71.5312C76.3 70 80.3158 66 80.3158 61.25C80.3158 59.25 78.5589 57.5 76.551 57.5Z" fill="#FBFBFB"/>
</g>
<defs>
<clipPath id="clip0_1_1859">
<rect width="80.3158" height="70" fill="white"/>
</clipPath>
</defs>
</svg>
