<svg width="21" height="16" viewBox="0 0 21 16" fill="none" xmlns="http://www.w3.org/2000/svg">
<path fill-rule="evenodd" clip-rule="evenodd" d="M17.5064 2L11.0014 6.468C10.6944 6.643 10.3184 6.643 10.0114 6.468L3.50641 2H17.5064ZM17.5064 0H3.50641C1.85241 0 0.506409 1.346 0.506409 3V13C0.506409 14.654 1.85241 16 3.50641 16H17.5064C19.1604 16 20.5064 14.654 20.5064 13V3C20.5064 1.346 19.1604 0 17.5064 0Z" fill="#FBFBFB"/>
<mask id="mask0_1_1856" style="mask-type:luminance" maskUnits="userSpaceOnUse" x="0" y="0" width="21" height="16">
<path fill-rule="evenodd" clip-rule="evenodd" d="M17.5064 2L11.0014 6.468C10.6944 6.643 10.3184 6.643 10.0114 6.468L3.50641 2H17.5064ZM17.5064 0H3.50641C1.85241 0 0.506409 1.346 0.506409 3V13C0.506409 14.654 1.85241 16 3.50641 16H17.5064C19.1604 16 20.5064 14.654 20.5064 13V3C20.5064 1.346 19.1604 0 17.5064 0Z" fill="white"/>
</mask>
<g mask="url(#mask0_1_1856)">
<rect x="-1.5" y="-4" width="24" height="24" fill="#FBFBFB"/>
</g>
</svg>
