<svg width="11" height="18" viewBox="0 0 11 18" fill="none" xmlns="http://www.w3.org/2000/svg">
<path fill-rule="evenodd" clip-rule="evenodd" d="M10.4 1.35051C10.4 1.10211 10.1975 0.900513 9.95 0.900513H7.7C5.2142 0.900513 3.2 2.71401 3.2 4.95051V7.38051H0.95C0.7016 7.38051 0.5 7.58211 0.5 7.83051V10.1705C0.5 10.4189 0.7016 10.6205 0.95 10.6205H3.2V16.6505C3.2 16.8989 3.4016 17.1005 3.65 17.1005H6.35C6.5975 17.1005 6.8 16.8989 6.8 16.6505V10.6205H9.1571C9.3596 10.6205 9.5369 10.4855 9.5918 10.2911L10.2407 7.95111C10.3208 7.66491 10.1048 7.38051 9.8078 7.38051H6.8V4.95051C6.8 4.50321 7.2023 4.14051 7.7 4.14051H9.95C10.1975 4.14051 10.4 3.93891 10.4 3.69051V1.35051Z" fill="#FBFBFB"/>
<mask id="mask0_1_1877" style="mask-type:luminance" maskUnits="userSpaceOnUse" x="0" y="0" width="11" height="18">
<path fill-rule="evenodd" clip-rule="evenodd" d="M10.4 1.35051C10.4 1.10211 10.1975 0.900513 9.95 0.900513H7.7C5.2142 0.900513 3.2 2.71401 3.2 4.95051V7.38051H0.95C0.7016 7.38051 0.5 7.58211 0.5 7.83051V10.1705C0.5 10.4189 0.7016 10.6205 0.95 10.6205H3.2V16.6505C3.2 16.8989 3.4016 17.1005 3.65 17.1005H6.35C6.5975 17.1005 6.8 16.8989 6.8 16.6505V10.6205H9.1571C9.3596 10.6205 9.5369 10.4855 9.5918 10.2911L10.2407 7.95111C10.3208 7.66491 10.1048 7.38051 9.8078 7.38051H6.8V4.95051C6.8 4.50321 7.2023 4.14051 7.7 4.14051H9.95C10.1975 4.14051 10.4 3.93891 10.4 3.69051V1.35051Z" fill="white"/>
</mask>
<g mask="url(#mask0_1_1877)">
<rect x="-4.89999" y="-1.79944" width="21.6" height="21.6" fill="#FBFBFB"/>
</g>
</svg>
