<svg width="67" height="93" viewBox="0 0 67 93" fill="none" xmlns="http://www.w3.org/2000/svg">
<g opacity="0.15">
<path d="M18.3738 67.1279C23.6982 70.3191 29.6112 72.0319 35.6313 72.2393V82.2185L26.5432 82.1373C26.5254 82.1373 26.5165 82.1373 26.4987 82.1373C23.8587 82.1373 21.7094 84.2918 21.6826 86.9602L21.6559 90.2956H19.5154C18.7751 90.2956 18.1776 90.8996 18.1776 91.6478C18.1776 92.396 18.7751 93 19.5154 93H55.4217C56.1619 93 56.7594 92.396 56.7594 91.6478C56.7594 90.8996 56.1619 90.2956 55.4217 90.2956H52.434L52.4607 87.2216C52.4696 85.9235 51.9791 84.6975 51.0783 83.769C50.1775 82.8405 48.9735 82.3266 47.6893 82.3176L38.2979 82.2365V72.2302C40.8219 72.1221 43.3459 71.7705 45.852 71.1214C46.1909 71.0313 46.4941 70.8059 46.6725 70.4994C46.8509 70.1929 46.9044 69.8233 46.8152 69.4717L45.4417 64.0359C45.7628 63.9368 46.0839 63.8286 46.396 63.7204C46.5298 63.6753 46.6547 63.6303 46.7885 63.5852C47.4484 63.3508 48.0995 63.0894 48.7327 62.8099C48.8932 62.7378 49.0538 62.6657 49.2144 62.5936C49.8387 62.3051 50.4629 61.9986 51.0694 61.6651C51.1853 61.602 51.3013 61.5298 51.4172 61.4667C51.988 61.1422 52.5499 60.7997 53.1028 60.4301C53.1831 60.376 53.2723 60.3219 53.3525 60.2678C53.9679 59.8531 54.5566 59.4114 55.1452 58.9517C55.2165 58.8885 55.2968 58.8345 55.3681 58.7714C55.9746 58.2846 56.5633 57.7617 57.1251 57.2208C57.1341 57.2118 57.143 57.2028 57.1519 57.1938C58.4807 55.9227 59.6937 54.5255 60.7817 53.011L61.4685 52.0915L61.4328 52.0735C61.7271 51.6318 62.0036 51.181 62.2711 50.7303C66.2845 43.8972 67.4172 35.9012 65.4819 28.2027C63.5376 20.5042 58.7483 14.0316 51.988 9.98406C51.5332 9.71362 51.0783 9.4522 50.6145 9.2088L50.6413 9.17274L49.5978 8.69497C47.939 7.89266 46.2177 7.26164 44.4697 6.79288C44.4429 6.78386 44.4161 6.77485 44.3894 6.77485C44.0594 6.6847 43.7383 6.61258 43.4083 6.53145C43.2835 6.50441 43.1586 6.47736 43.0337 6.45032C42.7662 6.39623 42.4986 6.34214 42.2221 6.28805C42.017 6.252 41.8119 6.21594 41.6068 6.17988C41.3927 6.14382 41.1876 6.10776 40.9735 6.08072C40.6614 6.03565 40.3492 5.99959 40.046 5.97254C39.9301 5.96353 39.8052 5.9455 39.6892 5.93648C38.7706 5.84634 37.8431 5.81028 36.9156 5.81028C36.8799 5.81028 36.8353 5.81028 36.7996 5.81028C36.3894 5.81028 35.9702 5.82831 35.5511 5.84634C35.4529 5.85535 35.3638 5.85535 35.2657 5.86437C34.9089 5.88239 34.5432 5.91846 34.1865 5.95451C34.0705 5.96353 33.9457 5.98156 33.8298 5.99057C33.4909 6.02663 33.152 6.0717 32.822 6.12579C32.6882 6.14382 32.5633 6.16185 32.4295 6.17988C32.0906 6.23397 31.7606 6.29707 31.4217 6.36017C31.2969 6.38722 31.1809 6.40525 31.056 6.43229C31.0382 6.43229 31.0114 6.44131 30.9936 6.44131L29.5488 1.00547C29.3615 0.293311 28.6391 -0.139392 27.9257 0.0409006C18.5344 2.46584 10.6414 8.43354 5.69155 16.8622C0.741727 25.2819 -0.658486 35.153 1.74062 44.6454C4.1308 54.1468 10.0349 62.1248 18.3738 67.1279ZM49.1876 85.6621C49.5889 86.0767 49.803 86.6176 49.803 87.1946L49.7762 90.1874L24.3404 89.9711L24.3671 86.9782C24.376 85.7883 25.3303 84.8327 26.5076 84.8327C26.5165 84.8327 26.5165 84.8327 26.5254 84.8327L47.6803 85.013C48.2511 85.022 48.7862 85.2564 49.1876 85.6621ZM35.2032 62.5485C34.6859 62.5124 34.1687 62.4674 33.6514 62.3952C33.5533 62.3862 33.4641 62.3772 33.366 62.3592C32.7506 62.269 32.1263 62.1699 31.5198 62.0347C31.4752 62.0256 31.4217 62.0166 31.3772 61.9986C30.084 61.7101 28.7996 61.3315 27.5421 60.8537C28.5053 59.7089 29.5667 58.6722 30.6815 57.7257C32.3314 59.763 34.0884 61.4036 35.89 62.5755C35.7919 62.5755 35.7027 62.5755 35.6046 62.5665C35.4619 62.5665 35.3281 62.5575 35.2032 62.5485ZM23.3147 58.8164C17.5533 55.3638 13.3705 49.9731 11.4084 43.5546L22.405 40.715C24.0104 46.5204 26.3381 51.5957 29.0583 55.5712C27.5867 56.8062 26.2311 58.2034 24.9914 59.7449C24.4385 59.4475 23.8677 59.141 23.3147 58.8164ZM13.968 21.7662C14.298 21.2073 14.6458 20.6754 15.0026 20.1526C16.813 20.9098 18.6771 21.4687 20.5589 21.8383C20.0505 26.6431 20.4072 32.2232 21.754 38.0918L10.7574 40.9314C9.42849 34.3417 10.5522 27.5897 13.968 21.7662ZM19.6402 14.9692C20.1129 14.5635 20.6035 14.1669 21.1029 13.7973C21.1832 13.7342 21.2634 13.6801 21.3526 13.617C21.7718 13.3105 22.191 13.022 22.628 12.7516C22.744 12.6794 22.8599 12.5983 22.9758 12.5262C23.0561 12.4811 23.1363 12.436 23.2166 12.382C22.191 14.284 21.424 16.5738 20.9424 19.161C19.5065 18.8725 18.0884 18.4669 16.6971 17.935C17.5711 16.8983 18.5165 15.9518 19.5154 15.0773C19.56 15.0413 19.5957 15.0052 19.6402 14.9692ZM40.2244 8.73102C40.3225 8.74004 40.4117 8.74906 40.5098 8.75807C41.1608 8.84822 41.8119 8.96541 42.454 9.10063C42.5075 9.10964 42.5521 9.12767 42.6056 9.13668C43.2032 9.2719 43.7918 9.41614 44.3894 9.59643C44.4607 9.61446 44.541 9.64151 44.6123 9.66855C45.1831 9.83983 45.745 10.0291 46.3069 10.2455C46.3426 10.2545 46.3693 10.2725 46.405 10.2815C45.4418 11.4264 44.3804 12.4631 43.2656 13.4096C41.6157 11.3723 39.8587 9.73165 38.0661 8.55975C38.2623 8.56876 38.4585 8.56876 38.6547 8.57778C39.172 8.61384 39.6982 8.65891 40.2244 8.73102ZM50.6859 48.8823C47.7517 48.5848 44.7818 48.7471 41.8297 49.3691L38.5923 36.5412L49.5889 33.7016C50.8197 39.1374 51.1407 44.402 50.6859 48.8823ZM54.4228 56.058C54.3782 56.094 54.3336 56.1301 54.2979 56.1751C53.8252 56.5808 53.3436 56.9684 52.8442 57.347C52.755 57.4102 52.6747 57.4733 52.5856 57.5364C52.1753 57.8338 51.7561 58.1223 51.3281 58.3927C51.2032 58.4739 51.0872 58.555 50.9624 58.6271C50.8821 58.6722 50.8019 58.7173 50.7216 58.7623C51.7472 56.8603 52.5142 54.5705 52.9958 51.9833C54.4317 52.2718 55.8498 52.6775 57.2411 53.2093C56.3671 54.228 55.4217 55.1835 54.4228 56.058ZM23.2434 22.244C24.1888 22.3341 25.1341 22.3882 26.0884 22.3882C28.0861 22.3882 30.1018 22.1629 32.0996 21.7482L35.337 34.5851L24.3404 37.4247C23.1185 31.9978 22.7885 26.7333 23.2434 22.244ZM29.1029 9.85786L31.4395 19.1159C28.8353 19.6568 26.2222 19.792 23.6358 19.5486C24.5187 14.8159 26.4005 11.2732 29.1029 9.85786ZM36.0059 37.2083L39.2522 50.0632C36.3715 50.9466 33.6781 52.2267 31.2434 53.9035C28.7194 50.1894 26.5076 45.4026 25.0093 40.0389L36.0059 37.2083ZM39.9033 52.6775L42.24 61.9355C39.1988 62.0076 35.8721 59.808 32.8487 56.076C34.9981 54.6156 37.3704 53.4707 39.9033 52.6775ZM44.8353 61.2684L42.4986 52.0104C45.1029 51.4695 47.716 51.3343 50.3024 51.5777C49.4195 56.3194 47.5287 59.8621 44.8353 61.2684ZM37.9323 33.918L34.6859 21.0631C37.5666 20.1796 40.2601 18.8996 42.6949 17.2228C45.2188 20.9369 47.4306 25.7236 48.9289 31.0784L37.9323 33.918ZM34.026 18.4488L31.6893 9.19979C31.7339 9.19979 31.7785 9.19077 31.8231 9.19077C34.8197 9.19077 38.1018 11.3813 41.0806 15.0503C38.9312 16.5197 36.5678 17.6645 34.026 18.4488ZM59.9702 49.3601C59.6491 49.91 59.3012 50.4418 58.9356 50.9737C57.1251 50.2165 55.2611 49.6575 53.3793 49.2879C53.8877 44.4922 53.5309 38.9031 52.1842 33.0435L63.1808 30.2039C64.5097 36.7846 63.386 43.5456 59.9702 49.3601ZM62.5209 27.5807L51.5242 30.4203C49.9189 24.6148 47.5912 19.5396 44.8621 15.5731C46.3426 14.3381 47.6982 12.9319 48.9289 11.3994C49.4997 11.6878 50.0616 11.9943 50.6145 12.3279C56.3759 15.7715 60.5677 21.1622 62.5209 27.5807ZM7.99256 18.2505C12.3448 10.8314 19.1765 5.46772 27.3103 3.02475L28.3983 7.1174C28.104 7.20755 27.8186 7.30671 27.5332 7.40587C27.4084 7.45095 27.2746 7.487 27.1497 7.53208C26.4897 7.76646 25.8387 8.02788 25.1965 8.30734C25.036 8.37946 24.8844 8.45157 24.7239 8.52369C24.0906 8.81216 23.4752 9.11865 22.8688 9.4522C22.7528 9.5153 22.6458 9.58742 22.5299 9.65052C21.9502 9.97505 21.3883 10.3266 20.8354 10.6872C20.7551 10.7413 20.6748 10.7864 20.5945 10.8405C19.9792 11.2551 19.3816 11.6968 18.8019 12.1656C18.7305 12.2287 18.6503 12.2828 18.5789 12.3459C17.9725 12.8327 17.3839 13.3555 16.822 13.8964C16.8131 13.9054 16.8041 13.9145 16.7952 13.9235C15.4663 15.1945 14.2534 16.5918 13.1653 18.1063L12.4786 19.0258L12.5143 19.0438C12.22 19.4855 11.9435 19.9362 11.6759 20.387C7.66258 27.2201 6.52994 35.2161 8.46527 42.9146C10.4095 50.6131 15.1988 57.0856 21.9591 61.1332C22.414 61.4036 22.8777 61.656 23.3415 61.8994L23.3147 61.9445L24.8309 62.6386C24.8755 62.6567 24.929 62.6837 24.9825 62.7017C25.366 62.873 25.7495 63.0353 26.133 63.1976C26.2668 63.2516 26.4095 63.3057 26.5432 63.3598C26.9357 63.5131 27.337 63.6573 27.7294 63.7925C27.8454 63.8286 27.9524 63.8646 28.0683 63.9007C28.7194 64.108 29.3794 64.2973 30.0394 64.4596C30.3248 64.5317 30.6012 64.6038 30.8866 64.6669C31.1363 64.721 31.3861 64.7661 31.6358 64.8112C31.9925 64.8743 32.3493 64.9374 32.706 64.9915C32.9201 65.0275 33.1341 65.0546 33.3481 65.0816C33.7762 65.1357 34.2132 65.1808 34.6413 65.2168C34.793 65.2258 34.9446 65.2439 35.0962 65.2529C35.7027 65.2889 36.3091 65.316 36.9156 65.316C38.8866 65.316 40.8755 65.0996 42.8465 64.694L43.8899 68.8137C35.5956 70.6076 27.0695 69.2013 19.7295 64.8022C12.006 60.1686 6.53884 52.7766 4.3181 43.9873C2.09737 35.198 3.4084 26.0482 7.99256 18.2505Z" fill="#878787"/>
</g>
</svg>
