<svg width="147" height="64" viewBox="0 0 147 64" fill="none" xmlns="http://www.w3.org/2000/svg">
<path d="M1.23495 62.2744C14.8587 35.8272 33.6743 10.4656 64.1611 2.83812C80.4397 -1.23463 99.2882 5.2367 96.0187 24.969C93.7919 38.4083 83.0148 58.219 67.0873 57.0804C49.4989 55.823 81.1588 30.6085 85.0443 28.537C103.231 18.8405 120.456 15.9387 140.646 15.2068C148.209 14.9326 144.62 12.2713 139.879 10.574C135.764 9.10127 131.046 7.53507 126.687 7.2064C125.358 7.10615 133.61 9.48276 134.93 9.79431C140.59 11.1305 147.071 12.8962 143.766 19.8963C143.234 21.0209 137.392 31.0527 135.698 30.5682C134.817 30.316 134.746 22.0653 134.481 20.9358C132.759 13.6003 129.898 10.0161 123.12 7.20092" stroke="#878787" stroke-opacity="0.2" stroke-width="2" stroke-linecap="round"/>
</svg>
