<svg width="193" height="60" viewBox="0 0 193 60" fill="none" xmlns="http://www.w3.org/2000/svg">
<g clip-path="url(#clip0_1_1683)">
<path d="M50.024 12.105L38.1235 5.23682L11.6351 22.4903L18.1604 28.0645C18.1715 28.0534 36.3208 14.9364 36.3208 14.9364C36.5204 14.7972 36.7596 14.7264 37.0028 14.7344C37.2459 14.7423 37.48 14.8287 37.6701 14.9806C39.0924 16.143 53.0986 27.5922 54.0719 28.3963V19.1059C54.0697 17.6867 53.6945 16.2929 52.9841 15.0642C52.2737 13.8355 51.2529 12.815 50.024 12.105ZM18.083 42.011L25.0175 36.835C20.4321 32.9187 0.718924 16.0645 0.718924 16.0645C-0.27868 18.0221 0.258832 24.3152 0.132749 26.494C0.835053 27.0989 16.8056 40.9094 18.083 42.011Z" fill="#8A47CB"/>
<path d="M34.8609 29.48L28.3798 23.4081L19.8858 29.5353L26.8314 35.4745L34.8609 29.48ZM9.87654 20.986L35.989 3.99798L31.1447 1.19983C29.9165 0.48899 28.5229 0.113765 27.1038 0.111824C25.6847 0.109883 24.2901 0.481293 23.06 1.18877L4.18069 12.0938C3.27987 12.6121 2.48751 13.2993 1.84705 14.1178C2.92096 15.0468 8.66769 19.9585 9.87654 20.986ZM44.1291 38.1731L18.0719 55.9242C20.4564 57.1641 24.2666 60.116 27.0858 59.8837C28.5058 59.8873 29.9018 59.5174 31.1337 58.8109L50.013 47.9058C50.9137 47.3875 51.7061 46.7003 52.3466 45.8819C51.3036 44.9307 45.2992 39.2636 44.1291 38.1731Z" fill="#8A47CB"/>
<path d="M36.4977 31.0175L27.4507 37.7751L18.6913 44.3225C18.4988 44.4641 18.2666 44.5415 18.0277 44.5437C17.7626 44.541 17.5074 44.4428 17.3088 44.2672C15.954 43.0949 0.969999 30.1559 0.132764 29.4138L0.121704 40.894C0.123956 42.3132 0.499079 43.707 1.2095 44.9357C1.91993 46.1644 2.94072 47.1849 4.16963 47.8949L15.9595 54.7078L42.4811 36.6248L36.4977 31.0175ZM36.9291 17.2368L30.2157 22.0811C34.8255 26.4121 53.4747 43.9244 53.4747 43.9244C53.8589 42.9639 54.0578 41.9394 54.0609 40.905V31.2497C53.2336 30.5717 38.2673 18.3284 36.9291 17.2368Z" fill="#8A47CB"/>
</g>
<path d="M68.0898 41V19.1818H82.7916V22.9851H72.7028V28.1839H82.0352V31.9872H72.7028V37.1967H82.8342V41H68.0898ZM94.1934 41H86.459V19.1818H94.2573C96.4519 19.1818 98.3411 19.6186 99.9249 20.4922C101.509 21.3587 102.727 22.6051 103.579 24.2315C104.438 25.858 104.868 27.804 104.868 30.0696C104.868 32.3423 104.438 34.2955 103.579 35.929C102.727 37.5625 101.502 38.8161 99.9036 39.6896C98.3127 40.5632 96.4093 41 94.1934 41ZM91.0719 37.0476H94.0016C95.3652 37.0476 96.5123 36.8061 97.4427 36.3232C98.3802 35.8331 99.0833 35.0767 99.552 34.054C100.028 33.0241 100.266 31.696 100.266 30.0696C100.266 28.4574 100.028 27.1399 99.552 26.1172C99.0833 25.0945 98.3837 24.3416 97.4533 23.8587C96.5229 23.3757 95.3759 23.1342 94.0123 23.1342H91.0719V37.0476ZM121.762 19.1818H126.375V33.3509C126.375 34.9418 125.995 36.3338 125.235 37.527C124.482 38.7202 123.427 39.6506 122.071 40.3182C120.714 40.9787 119.134 41.3089 117.33 41.3089C115.519 41.3089 113.935 40.9787 112.578 40.3182C111.222 39.6506 110.167 38.7202 109.414 37.527C108.662 36.3338 108.285 34.9418 108.285 33.3509V19.1818H112.898V32.9567C112.898 33.7876 113.079 34.5263 113.441 35.1726C113.811 35.8189 114.329 36.3267 114.997 36.696C115.664 37.0653 116.442 37.25 117.33 37.25C118.225 37.25 119.002 37.0653 119.663 36.696C120.331 36.3267 120.846 35.8189 121.208 35.1726C121.577 34.5263 121.762 33.7876 121.762 32.9567V19.1818ZM144.637 26.2344C144.488 25.7159 144.279 25.2578 144.009 24.8601C143.739 24.4553 143.409 24.1143 143.018 23.8374C142.634 23.5533 142.194 23.3366 141.697 23.1875C141.207 23.0384 140.664 22.9638 140.067 22.9638C138.952 22.9638 137.972 23.2408 137.127 23.7947C136.289 24.3487 135.635 25.1548 135.166 26.2131C134.698 27.2642 134.463 28.5497 134.463 30.0696C134.463 31.5895 134.694 32.8821 135.156 33.9474C135.617 35.0128 136.271 35.826 137.116 36.3871C137.961 36.9411 138.959 37.218 140.11 37.218C141.154 37.218 142.045 37.0334 142.784 36.6641C143.529 36.2876 144.097 35.7585 144.488 35.0767C144.886 34.3949 145.085 33.5888 145.085 32.6584L146.022 32.7969H140.397V29.3239H149.527V32.0724C149.527 33.9901 149.122 35.6378 148.313 37.0156C147.503 38.3864 146.388 39.4446 144.968 40.1903C143.547 40.929 141.921 41.2983 140.088 41.2983C138.043 41.2983 136.246 40.8473 134.698 39.9453C133.149 39.0362 131.942 37.7472 131.075 36.0781C130.216 34.402 129.786 32.4134 129.786 30.1122C129.786 28.3437 130.042 26.767 130.553 25.3821C131.072 23.9901 131.796 22.8111 132.727 21.8452C133.657 20.8793 134.74 20.1442 135.976 19.6399C137.212 19.1357 138.551 18.8835 139.992 18.8835C141.228 18.8835 142.379 19.0646 143.444 19.4268C144.509 19.782 145.454 20.2862 146.278 20.9396C147.109 21.593 147.787 22.3707 148.313 23.2727C148.838 24.1676 149.176 25.1548 149.325 26.2344H144.637ZM152.992 41V19.1818H167.694V22.9851H157.605V28.1839H166.938V31.9872H157.605V37.1967H167.737V41H152.992ZM189.611 19.1818V41H185.626L176.134 27.2678H175.974V41H171.361V19.1818H175.41L184.827 32.9034H185.019V19.1818H189.611Z" fill="#FBFBFB"/>
<defs>
<clipPath id="clip0_1_1683">
<rect width="54.1936" height="60" fill="white"/>
</clipPath>
</defs>
</svg>
