<svg width="120" height="120" viewBox="0 0 120 120" fill="none" xmlns="http://www.w3.org/2000/svg">
<path d="M60 0L111.962 30V90L60 120L8.03848 90V30L60 0Z" fill="#FBFBFB"/>
<g clip-path="url(#clip0_1_2378)">
<path d="M82.0175 37.9824L69.7864 50.2135C67.2816 47.7086 63.8213 46.159 60.0001 46.159V28.8625C68.5979 28.8625 76.3833 32.3468 82.0175 37.9824Z" fill="url(#paint0_linear_1_2378)"/>
<path d="M50.2137 50.2135C47.7088 52.7184 46.1592 56.1786 46.1592 59.9999H28.8627C28.8627 51.402 32.347 43.6166 37.9826 37.9824L50.2137 50.2135Z" fill="url(#paint1_linear_1_2378)"/>
<path d="M60.0001 28.8625V46.159C56.1788 46.159 52.7186 47.7086 50.2137 50.2135L37.9826 37.9824C43.6168 32.3468 51.4022 28.8625 60.0001 28.8625Z" fill="url(#paint2_linear_1_2378)"/>
<path d="M91.1374 59.9999H73.8409C73.8409 56.1786 72.2913 52.7184 69.7864 50.2135L82.0175 37.9824C87.6531 43.6166 91.1374 51.402 91.1374 59.9999Z" fill="url(#paint3_linear_1_2378)"/>
<path d="M91.1374 60C91.1374 68.5978 87.6531 76.3833 82.0175 82.0174L69.7864 69.7864C72.2913 67.2815 73.8409 63.8213 73.8409 60H91.1374Z" fill="url(#paint4_linear_1_2378)"/>
<path d="M50.2137 69.7864L37.9826 82.0174C32.347 76.3833 28.8627 68.5978 28.8627 60H46.1592C46.1592 63.8213 47.7088 67.2815 50.2137 69.7864Z" fill="url(#paint5_linear_1_2378)"/>
<path d="M82.0175 82.0174C76.3833 87.6531 68.5979 91.1373 60.0001 91.1373V73.8408C63.8213 73.8408 67.2816 72.2913 69.7864 69.7864L82.0175 82.0174Z" fill="url(#paint6_linear_1_2378)"/>
<path d="M60.0001 73.8408V91.1373C51.4022 91.1373 43.6168 87.6531 37.9826 82.0174L50.2137 69.7864C52.7186 72.2913 56.1788 73.8408 60.0001 73.8408Z" fill="url(#paint7_linear_1_2378)"/>
<path d="M76.7023 43.2976L69.7864 50.2135C67.2816 47.7086 63.8213 46.159 60.0001 46.159V36.3801C66.5233 36.3801 72.4267 39.0235 76.7023 43.2976Z" fill="url(#paint8_linear_1_2378)"/>
<path d="M50.2137 50.2135C47.7088 52.7184 46.1592 56.1786 46.1592 59.9999H36.3804C36.3804 53.4766 39.0236 47.5732 43.2978 43.2976L50.2137 50.2135Z" fill="url(#paint9_linear_1_2378)"/>
<path d="M60 36.3801V46.159C56.1788 46.159 52.7186 47.7086 50.2137 50.2135L43.2978 43.2976C47.5734 39.0235 53.4768 36.3801 60 36.3801Z" fill="url(#paint10_linear_1_2378)"/>
<path d="M83.6198 59.9999H73.8409C73.8409 56.1786 72.2913 52.7184 69.7864 50.2135L76.7023 43.2976C80.9764 47.5732 83.6198 53.4766 83.6198 59.9999Z" fill="url(#paint11_linear_1_2378)"/>
<path d="M83.6198 60C83.6198 66.5232 80.9764 72.4266 76.7023 76.7022L69.7864 69.7864C72.2913 67.2815 73.8409 63.8213 73.8409 60H83.6198Z" fill="url(#paint12_linear_1_2378)"/>
<path d="M50.2137 69.7864L43.2978 76.7022C39.0237 72.4266 36.3804 66.5232 36.3804 60H46.1592C46.1592 63.8213 47.7088 67.2815 50.2137 69.7864Z" fill="url(#paint13_linear_1_2378)"/>
<path d="M76.7023 76.7023C72.4267 80.9763 66.5233 83.6197 60.0001 83.6197V73.8408C63.8213 73.8408 67.2816 72.2913 69.7864 69.7864L76.7023 76.7023Z" fill="url(#paint14_linear_1_2378)"/>
<path d="M60 73.8408V83.6197C53.4768 83.6197 47.5734 80.9763 43.2978 76.7023L50.2137 69.7864C52.7186 72.2913 56.1788 73.8408 60 73.8408Z" fill="url(#paint15_linear_1_2378)"/>
<path d="M85.6131 42.292L72.908 54.9971C73.51 56.5489 73.8409 58.2356 73.8409 59.9998C73.8409 63.821 72.2913 67.2812 69.7864 69.7861C67.2815 72.291 63.8213 73.8406 60.0001 73.8406C58.2359 73.8406 56.549 73.5097 54.9974 72.9076L42.2923 85.6128C47.3199 89.0953 53.4215 91.1371 60.0002 91.1371C68.598 91.1371 76.3834 87.6528 82.0176 82.0172C87.6533 76.3831 91.1375 68.5976 91.1375 59.9998C91.1374 53.4213 89.0957 47.3196 85.6131 42.292Z" fill="url(#paint16_linear_1_2378)"/>
<path d="M33.7184 72.8817L27.0684 91.4839C26.7467 92.384 27.6158 93.2533 28.5159 92.9315L47.1181 86.2816C50.8295 82.5702 37.4296 69.1704 33.7184 72.8817Z" fill="url(#paint17_linear_1_2378)"/>
<path d="M69.5747 63.8272L47.1179 86.2817C46.751 85.6459 46.1935 85.0834 45.4793 84.6848C44.5035 84.1444 42.9775 84.4402 41.921 84.7606C41.691 84.8291 41.4807 84.7092 41.3952 84.5259C41.3665 84.4674 41.3512 84.4032 41.3504 84.3381C41.3495 84.273 41.3632 84.2085 41.3903 84.1493C41.3927 84.1493 41.3927 84.1468 41.3927 84.1468C41.4509 84.0133 41.5024 83.877 41.5469 83.7384L41.6056 83.5403C41.6081 83.5353 41.6081 83.5329 41.6081 83.5281C41.6644 83.3153 41.7034 83.1026 41.7254 82.8849C41.7328 82.814 41.7377 82.7406 41.7425 82.6697C41.7486 82.5516 41.7498 82.4334 41.7459 82.3152C41.7194 81.4694 41.4368 80.6515 40.9354 79.9698C40.8089 79.7969 40.6691 79.6342 40.5173 79.4831C40.3662 79.3312 40.2034 79.1913 40.0305 79.0648C39.2332 78.4779 38.2746 78.2089 37.3306 78.2578C37.2597 78.2627 37.1863 78.2676 37.1154 78.2749C36.8977 78.2969 36.6825 78.336 36.4722 78.3923C36.4673 78.3923 36.4649 78.3923 36.4599 78.3947L36.2618 78.4535C36.1909 78.4755 36.1224 78.4999 36.054 78.5268C35.988 78.5513 35.9219 78.5782 35.8559 78.6076C35.8534 78.6076 35.8534 78.6076 35.8509 78.6101C35.7917 78.6372 35.7272 78.6508 35.6621 78.65C35.597 78.6491 35.5328 78.6338 35.4743 78.6051C35.291 78.5196 35.1711 78.3092 35.2396 78.0793C35.56 77.0228 35.8559 75.4993 35.3154 74.5235C34.9167 73.8069 34.3567 73.2493 33.7185 72.8826L56.173 50.4258C57.1853 49.4157 58.8239 49.4157 59.834 50.4258L61.744 52.3357L67.6647 58.2565L69.5747 60.1664C70.5846 61.1762 70.5846 62.8147 69.5747 63.8272Z" fill="url(#paint18_linear_1_2378)"/>
<path d="M67.6647 58.256L41.3952 84.5256C41.3665 84.4671 41.3513 84.403 41.3504 84.3378C41.3495 84.2727 41.3632 84.2082 41.3903 84.149C41.3927 84.149 41.3927 84.1465 41.3927 84.1465C41.4515 84.0121 41.7058 83.0998 41.7253 82.8846C41.7352 82.8113 41.7399 82.7403 41.7424 82.6694C41.7913 81.7255 41.5223 80.7668 40.9354 79.9695C40.8089 79.7967 40.6691 79.6339 40.5173 79.4828C40.3662 79.3309 40.2034 79.1911 40.0305 79.0645C39.2332 78.4776 38.2746 78.2086 37.3306 78.2575C37.2597 78.26 37.1888 78.2649 37.1154 78.2746C36.898 78.2945 36.6827 78.3338 36.4722 78.392C36.4673 78.392 36.4649 78.392 36.4599 78.3944C36.3939 78.4115 35.922 78.5778 35.8558 78.6072C35.8534 78.6072 35.8534 78.6072 35.8509 78.6096C35.7917 78.6368 35.7272 78.6504 35.6621 78.6496C35.597 78.6487 35.5328 78.6334 35.4743 78.6047L61.7439 52.3352L67.6647 58.256Z" fill="url(#paint19_linear_1_2378)"/>
<path d="M30.8234 89.1765C30.1416 88.4938 29.3579 87.921 28.5004 87.4785L27.0685 91.4839C26.7468 92.384 27.616 93.2532 28.516 92.9314L32.5214 91.4996C32.0791 90.642 31.5062 89.8583 30.8234 89.1765Z" fill="url(#paint20_linear_1_2378)"/>
<path d="M90.9054 29.0948L63.7891 56.211L59.8225 52.2444C58.9579 51.3798 58.9579 49.9779 59.8225 49.1133L62.1949 46.7409C62.7019 46.2339 63.1041 45.632 63.3785 44.9695C63.6529 44.307 63.7941 43.597 63.7941 42.8799V39.9235C63.7941 37.5976 65.2675 35.527 67.465 34.7648L89.6391 27.0733C90.8667 26.6474 91.824 28.1759 90.9054 29.0948Z" fill="url(#paint21_linear_1_2378)"/>
<path d="M90.9053 29.0948L63.7891 56.211L67.7557 60.1776C68.6203 61.0422 70.0222 61.0422 70.8868 60.1776L73.2592 57.8052C73.7662 57.2982 74.3681 56.896 75.0306 56.6216C75.6931 56.3472 76.4031 56.206 77.1202 56.206H80.0764C82.4023 56.206 84.4729 54.7326 85.2352 52.5351L92.9266 30.3609C93.3525 29.1335 91.824 28.176 90.9053 29.0948Z" fill="url(#paint22_linear_1_2378)"/>
<path d="M78.1297 43.1437L91.7501 29.5233C92.0891 29.1843 92.1294 28.6323 91.8128 28.2721C91.7316 28.1793 91.6323 28.1042 91.5209 28.0514C91.4094 27.9986 91.2884 27.9692 91.1652 27.9651C91.0419 27.961 90.9192 27.9822 90.8045 28.0275C90.6899 28.0728 90.5857 28.1411 90.4985 28.2283L76.8883 41.8387C75.9972 42.7298 74.7623 43.2177 73.5069 43.1068C72.3457 43.0043 71.1458 43.4439 70.3179 44.4261C69.1448 45.8179 69.1635 47.894 70.3588 49.2668C71.794 50.9149 74.2968 50.9795 75.8157 49.4606C76.6112 48.6651 76.972 47.5999 76.8988 46.5596C76.8092 45.292 77.2312 44.0422 78.1297 43.1437Z" fill="url(#paint23_linear_1_2378)"/>
<path d="M63.564 44.4463C63.3047 45.3127 62.8342 46.1011 62.1949 46.7408L59.8225 49.1131C58.9579 49.9777 58.9579 51.3796 59.8225 52.2442L63.7891 56.2108L67.7557 60.1774C68.6203 61.042 70.0222 61.042 70.8868 60.1774L73.2592 57.8051C73.8988 57.1656 74.6872 56.6952 75.5536 56.4359L63.564 44.4463Z" fill="url(#paint24_linear_1_2378)"/>
<path d="M66.2539 67.1479L52.8521 53.746L58.1931 48.4051C58.8117 47.7865 59.8145 47.7865 60.4329 48.4051L71.5948 59.567C72.2134 60.1856 72.2134 61.1884 71.5948 61.8068L66.2539 67.1479Z" fill="url(#paint25_linear_1_2378)"/>
</g>
<defs>
<linearGradient id="paint0_linear_1_2378" x1="56.6297" y1="27.6916" x2="77.2152" y2="48.2772" gradientUnits="userSpaceOnUse">
<stop stop-color="#FFF5D9"/>
<stop offset="1" stop-color="#FFCE47"/>
</linearGradient>
<linearGradient id="paint1_linear_1_2378" x1="32.8311" y1="48.3995" x2="42.0453" y2="57.6138" gradientUnits="userSpaceOnUse">
<stop stop-color="#6FA953"/>
<stop offset="1" stop-color="#43765A"/>
</linearGradient>
<linearGradient id="paint2_linear_1_2378" x1="47.8583" y1="32.2894" x2="59.9673" y2="44.3985" gradientUnits="userSpaceOnUse">
<stop stop-color="#E4E08E"/>
<stop offset="1" stop-color="#6FA953"/>
</linearGradient>
<linearGradient id="paint3_linear_1_2378" x1="69.943" y1="41.005" x2="89.5965" y2="60.6586" gradientUnits="userSpaceOnUse">
<stop stop-color="#FFCE47"/>
<stop offset="1" stop-color="#FF9356"/>
</linearGradient>
<linearGradient id="paint4_linear_1_2378" x1="74.3091" y1="58.7403" x2="85.7026" y2="70.134" gradientUnits="userSpaceOnUse">
<stop stop-color="#FF9356"/>
<stop offset="1" stop-color="#FF755C"/>
</linearGradient>
<linearGradient id="paint5_linear_1_2378" x1="31.1894" y1="60.1272" x2="44.596" y2="73.5339" gradientUnits="userSpaceOnUse">
<stop stop-color="#7ACBFF"/>
<stop offset="1" stop-color="#45A2E0"/>
</linearGradient>
<linearGradient id="paint6_linear_1_2378" x1="59.9782" y1="75.5469" x2="71.2254" y2="86.7939" gradientUnits="userSpaceOnUse">
<stop stop-color="#FF755C"/>
<stop offset="1" stop-color="#FF4181"/>
</linearGradient>
<linearGradient id="paint7_linear_1_2378" x1="40.7796" y1="69.7173" x2="67.976" y2="96.9139" gradientUnits="userSpaceOnUse">
<stop stop-color="#FF4181"/>
<stop offset="1" stop-color="#843561"/>
</linearGradient>
<linearGradient id="paint8_linear_1_2378" x1="72.433" y1="48.8101" x2="59.7635" y2="36.1406" gradientUnits="userSpaceOnUse">
<stop stop-color="#FFF5D9"/>
<stop offset="1" stop-color="#FFCE47"/>
</linearGradient>
<linearGradient id="paint9_linear_1_2378" x1="47.4004" y1="59.2101" x2="31.6976" y2="43.5072" gradientUnits="userSpaceOnUse">
<stop stop-color="#6FA953"/>
<stop offset="1" stop-color="#43765A"/>
</linearGradient>
<linearGradient id="paint10_linear_1_2378" x1="58.3828" y1="46.5727" x2="44.4081" y2="32.5981" gradientUnits="userSpaceOnUse">
<stop stop-color="#E4E08E"/>
<stop offset="1" stop-color="#6FA953"/>
</linearGradient>
<linearGradient id="paint11_linear_1_2378" x1="83.4708" y1="59.8479" x2="68.7181" y2="45.0953" gradientUnits="userSpaceOnUse">
<stop stop-color="#FFCE47"/>
<stop offset="1" stop-color="#FF9356"/>
</linearGradient>
<linearGradient id="paint12_linear_1_2378" x1="82.4538" y1="70.6438" x2="72.5978" y2="60.7879" gradientUnits="userSpaceOnUse">
<stop stop-color="#FF9356"/>
<stop offset="1" stop-color="#FF755C"/>
</linearGradient>
<linearGradient id="paint13_linear_1_2378" x1="51.2728" y1="74.8954" x2="33.0757" y2="56.6983" gradientUnits="userSpaceOnUse">
<stop stop-color="#7ACBFF"/>
<stop offset="1" stop-color="#45A2E0"/>
</linearGradient>
<linearGradient id="paint14_linear_1_2378" x1="71.1705" y1="82.9803" x2="57.9071" y2="69.7169" gradientUnits="userSpaceOnUse">
<stop stop-color="#FF755C"/>
<stop offset="1" stop-color="#FF4181"/>
</linearGradient>
<linearGradient id="paint15_linear_1_2378" x1="60.2994" y1="83.922" x2="44.1126" y2="67.7352" gradientUnits="userSpaceOnUse">
<stop stop-color="#FF4181"/>
<stop offset="1" stop-color="#843561"/>
</linearGradient>
<linearGradient id="paint16_linear_1_2378" x1="73.3687" y1="73.3685" x2="63.9616" y2="63.9614" gradientUnits="userSpaceOnUse">
<stop stop-color="#843561" stop-opacity="0"/>
<stop offset="1" stop-color="#3A2F4D"/>
</linearGradient>
<linearGradient id="paint17_linear_1_2378" x1="28.5588" y1="78.0048" x2="41.9587" y2="91.4047" gradientUnits="userSpaceOnUse">
<stop stop-color="#FFE0EA"/>
<stop offset="1" stop-color="#FFC0D5"/>
</linearGradient>
<linearGradient id="paint18_linear_1_2378" x1="33.7185" y1="67.9749" x2="70.3321" y2="67.9749" gradientUnits="userSpaceOnUse">
<stop stop-color="#FFCE47"/>
<stop offset="1" stop-color="#FF9356"/>
</linearGradient>
<linearGradient id="paint19_linear_1_2378" x1="57.1295" y1="73.9904" x2="43.6022" y2="60.4632" gradientUnits="userSpaceOnUse">
<stop stop-color="#FFCE47"/>
<stop offset="1" stop-color="#FF9356"/>
</linearGradient>
<linearGradient id="paint20_linear_1_2378" x1="28.665" y1="90.4894" x2="32.0841" y2="93.9085" gradientUnits="userSpaceOnUse">
<stop stop-color="#2F73A0"/>
<stop offset="1" stop-color="#174461"/>
</linearGradient>
<linearGradient id="paint21_linear_1_2378" x1="74.6083" y1="38.5713" x2="76.3728" y2="41.4702" gradientUnits="userSpaceOnUse">
<stop stop-color="#EDF5FF"/>
<stop offset="1" stop-color="#C7E9FF"/>
</linearGradient>
<linearGradient id="paint22_linear_1_2378" x1="79.0896" y1="44.1493" x2="81.4843" y2="48.4345" gradientUnits="userSpaceOnUse">
<stop stop-color="#EDF5FF"/>
<stop offset="1" stop-color="#C7E9FF"/>
</linearGradient>
<linearGradient id="paint23_linear_1_2378" x1="83.6143" y1="41.2831" x2="79.5021" y2="37.1709" gradientUnits="userSpaceOnUse">
<stop stop-color="#2F73A0"/>
<stop offset="1" stop-color="#174461"/>
</linearGradient>
<linearGradient id="paint24_linear_1_2378" x1="68.0337" y1="51.9445" x2="65.7872" y2="54.191" gradientUnits="userSpaceOnUse">
<stop stop-color="#7ACBFF" stop-opacity="0"/>
<stop offset="1" stop-color="#2F73A0"/>
</linearGradient>
<linearGradient id="paint25_linear_1_2378" x1="63.8234" y1="55.2239" x2="60.3261" y2="60.8408" gradientUnits="userSpaceOnUse">
<stop stop-color="#2F73A0"/>
<stop offset="1" stop-color="#174461"/>
</linearGradient>
<clipPath id="clip0_1_2378">
<rect width="66" height="66" fill="white" transform="translate(27 27)"/>
</clipPath>
</defs>
</svg>
