<svg width="17" height="17" viewBox="0 0 17 17" fill="none" xmlns="http://www.w3.org/2000/svg">
<path fill-rule="evenodd" clip-rule="evenodd" d="M0.900402 2.71251C0.900402 1.65683 1.75718 0.800049 2.81286 0.800049C3.86854 0.800049 4.72532 1.65683 4.72532 2.71251C4.72532 3.76818 3.86854 4.62496 2.81286 4.62496C1.75718 4.62496 0.900402 3.76818 0.900402 2.71251ZM11.228 5.39029C8.48166 5.39029 6.25471 7.60364 6.25471 10.3321V15.3342C6.25471 15.7567 6.5981 16.1 7.02055 16.1H8.80466C9.2271 16.1 9.57049 15.7567 9.57049 15.3342V10.3321C9.57049 9.3665 10.4069 8.59472 11.3996 8.69416C12.2615 8.78001 12.8846 9.56794 12.8846 10.4341V15.3342C12.8846 15.7567 13.228 16.1 13.6504 16.1H15.4345C15.8569 16.1 16.2003 15.7567 16.2003 15.3342V10.3321C16.2003 7.60364 13.9734 5.39029 11.228 5.39029ZM3.95993 6.15476H1.66583C1.24339 6.15476 0.900002 6.4973 0.900002 6.91974V15.3346C0.900002 15.757 1.24339 16.0995 1.66583 16.0995H3.95993C4.38237 16.0995 4.72492 15.757 4.72492 15.3346V6.91974C4.72492 6.4973 4.38237 6.15476 3.95993 6.15476Z" fill="#FBFBFB"/>
<mask id="mask0_1_1884" style="mask-type:luminance" maskUnits="userSpaceOnUse" x="0" y="0" width="17" height="17">
<path fill-rule="evenodd" clip-rule="evenodd" d="M0.900402 2.71251C0.900402 1.65683 1.75718 0.800049 2.81286 0.800049C3.86854 0.800049 4.72532 1.65683 4.72532 2.71251C4.72532 3.76818 3.86854 4.62496 2.81286 4.62496C1.75718 4.62496 0.900402 3.76818 0.900402 2.71251ZM11.228 5.39029C8.48166 5.39029 6.25471 7.60364 6.25471 10.3321V15.3342C6.25471 15.7567 6.5981 16.1 7.02055 16.1H8.80466C9.2271 16.1 9.57049 15.7567 9.57049 15.3342V10.3321C9.57049 9.3665 10.4069 8.59472 11.3996 8.69416C12.2615 8.78001 12.8846 9.56794 12.8846 10.4341V15.3342C12.8846 15.7567 13.228 16.1 13.6504 16.1H15.4345C15.8569 16.1 16.2003 15.7567 16.2003 15.3342V10.3321C16.2003 7.60364 13.9734 5.39029 11.228 5.39029ZM3.95993 6.15476H1.66583C1.24339 6.15476 0.900002 6.4973 0.900002 6.91974V15.3346C0.900002 15.757 1.24339 16.0995 1.66583 16.0995H3.95993C4.38237 16.0995 4.72492 15.757 4.72492 15.3346V6.91974C4.72492 6.4973 4.38237 6.15476 3.95993 6.15476Z" fill="white"/>
</mask>
<g mask="url(#mask0_1_1884)">
<rect x="-1.6496" y="-1.74988" width="20.3995" height="20.3995" fill="#FBFBFB"/>
</g>
</svg>
