<svg width="120" height="120" viewBox="0 0 120 120" fill="none" xmlns="http://www.w3.org/2000/svg">
<path d="M60 0L111.962 30V90L60 120L8.03848 90V30L60 0Z" fill="#FBFBFB"/>
<path d="M57.3013 44.7958C55.0557 47.1863 55.0557 50.9679 57.3013 53.3582C58.7666 54.9187 60.8278 55.5553 62.7805 55.2678C63.6281 55.1429 64.3841 55.8137 64.3841 56.6702V61.2475C64.3841 62.9803 62.9795 64.3849 61.2467 64.3849H56.6694C55.8129 64.3849 55.1421 63.629 55.267 62.7813C55.5543 60.8286 54.9179 58.7676 53.3574 57.3021C50.9671 55.0565 47.1853 55.0565 44.795 57.3021C43.2346 58.7674 42.5981 60.8285 42.8854 62.7813C43.0103 63.6289 42.3395 64.3849 41.4831 64.3849H36.9053C35.1725 64.3849 33.768 62.9803 33.768 61.2475V56.6702C33.768 55.8137 33.011 55.1429 32.1633 55.2678C30.2117 55.5551 28.1496 54.9187 26.6843 53.3582C24.4386 50.9678 24.4386 47.1861 26.6843 44.7958C28.1496 43.2354 30.2118 42.5988 32.1633 42.8862C33.011 43.0111 33.768 42.3404 33.768 41.4839V36.9064C33.768 35.1736 35.1725 33.7691 36.9053 33.7691H41.4827C42.3391 33.7691 43.0099 33.0121 42.885 32.1644C42.5977 30.2128 43.2342 28.1507 44.7946 26.6852C47.1849 24.4396 50.9667 24.4396 53.357 26.6852C54.9174 28.1507 55.5539 30.2128 55.2666 32.1644C55.1417 33.012 55.8125 33.7691 56.669 33.7691H61.2463C62.9791 33.7691 64.3836 35.1736 64.3836 36.9064V41.4837C64.3836 42.3402 63.6278 43.011 62.7801 42.8861C60.8278 42.5989 58.7666 43.2354 57.3013 44.7958Z" fill="url(#paint0_linear_1_2342)"/>
<path d="M26.6841 53.3583C28.1494 54.9187 30.2115 55.5552 32.1633 55.2679C33.011 55.143 33.768 55.8137 33.768 56.6702V61.2475C33.768 62.9804 35.1725 64.3849 36.9053 64.3849H41.4826C42.3391 64.3849 43.0099 63.629 42.885 62.7814C42.5977 60.8286 43.2342 58.7676 44.7946 57.3021C47.1849 55.0565 50.9667 55.0565 53.357 57.3021C54.9174 58.7675 55.5539 60.8285 55.2666 62.7814C55.1417 63.6289 55.8125 64.3849 56.6689 64.3849H61.2463C62.9791 64.3849 64.3836 62.9804 64.3836 61.2475V56.6702C64.3836 55.8137 63.6278 55.143 62.7801 55.2679C60.8274 55.5552 58.7663 54.9187 57.3009 53.3583C56.6269 52.6407 56.1341 51.7726 55.8633 50.8262H25.2465C25.5174 51.7726 26.0102 52.6406 26.6841 53.3583Z" fill="url(#paint1_linear_1_2342)"/>
<path d="M57.3013 75.4097C55.0557 77.8002 55.0557 81.5818 57.3013 83.9721C58.7666 85.5325 60.8278 86.1691 62.7805 85.8817C63.6281 85.7568 64.3841 86.4276 64.3841 87.2841V91.8614C64.3841 93.5942 62.9795 94.9987 61.2467 94.9987H56.6694C55.8129 94.9987 55.1421 94.2429 55.267 93.3952C55.5543 91.4425 54.9179 89.3814 53.3574 87.916C50.9671 85.6704 47.1853 85.6704 44.795 87.916C43.2346 89.3813 42.5981 91.4423 42.8854 93.3952C43.0103 94.2427 42.3395 94.9987 41.4831 94.9987H36.9053C35.1725 94.9987 33.768 93.5942 33.768 91.8614V87.2841C33.768 86.4276 33.011 85.7568 32.1633 85.8817C30.2117 86.169 28.1496 85.5325 26.6843 83.9721C24.4386 81.5817 24.4386 77.8 26.6843 75.4097C28.1496 73.8493 30.2118 73.2127 32.1633 73.5001C33.011 73.625 33.768 72.9542 33.768 72.0978V67.5204C33.768 65.7876 35.1725 64.3831 36.9053 64.3831H41.4827C42.3391 64.3831 43.0099 63.6261 42.885 62.7784C42.5977 60.8268 43.2342 58.7647 44.7946 57.2992C47.1849 55.0536 50.9667 55.0536 53.357 57.2992C54.9174 58.7647 55.5539 60.8268 55.2666 62.7784C55.1417 63.626 55.8125 64.3831 56.669 64.3831H61.2463C62.9791 64.3831 64.3836 65.7876 64.3836 67.5204V72.0978C64.3836 72.9542 63.6278 73.625 62.7801 73.5001C60.8278 73.2127 58.7666 73.8493 57.3013 75.4097Z" fill="url(#paint2_linear_1_2342)"/>
<path d="M87.9174 75.4097C85.6717 77.8002 85.6717 81.5818 87.9174 83.9721C89.3827 85.5325 91.4439 86.1691 93.3966 85.8817C94.2441 85.7568 95.0001 86.4276 95.0001 87.2841V91.8614C95.0001 93.5942 93.5956 94.9987 91.8628 94.9987H87.2854C86.429 94.9987 85.7582 94.2429 85.8831 93.3952C86.1704 91.4425 85.5339 89.3814 83.9735 87.916C81.5832 85.6704 77.8014 85.6704 75.4111 87.916C73.8507 89.3813 73.2142 91.4423 73.5015 93.3952C73.6264 94.2427 72.9556 94.9987 72.0991 94.9987H67.5218C65.789 94.9987 64.3845 93.5942 64.3845 91.8614V87.2841C64.3845 86.4276 63.6275 85.7568 62.7798 85.8817C60.8282 86.169 58.7661 85.5325 57.3007 83.9721C55.0551 81.5817 55.0551 77.8 57.3007 75.4097C58.7661 73.8493 60.8283 73.2127 62.7798 73.5001C63.6275 73.625 64.3845 72.9542 64.3845 72.0978V67.5204C64.3845 65.7876 65.789 64.3831 67.5218 64.3831H72.0991C72.9556 64.3831 73.6264 63.6261 73.5015 62.7784C73.2142 60.8268 73.8507 58.7647 75.4111 57.2992C77.8014 55.0536 81.5832 55.0536 83.9735 57.2992C85.5339 58.7647 86.1704 60.8268 85.8831 62.7784C85.7582 63.626 86.429 64.3831 87.2854 64.3831H91.8628C93.5956 64.3831 95.0001 65.7876 95.0001 67.5204V72.0978C95.0001 72.9542 94.2443 73.625 93.3966 73.5001C91.4437 73.2127 89.3827 73.8493 87.9174 75.4097Z" fill="url(#paint3_linear_1_2342)"/>
<path d="M62.7805 73.4999C63.628 73.6248 64.384 72.9541 64.384 72.0976V67.5203C64.384 65.7874 62.9795 64.3829 61.2467 64.3829H56.6694C55.8129 64.3829 55.1421 63.6259 55.267 62.7783C55.5543 60.8266 54.9178 58.7645 53.3574 57.299C52.1696 56.1833 50.6384 55.6225 49.1048 55.6155C48.6091 56.9566 48.3391 58.4373 48.3391 60.0233C48.3391 63.6821 49.3295 66.9658 51.8652 69.2188L57.6845 75.0383C59.1137 73.7512 60.9918 73.2368 62.7805 73.4999Z" fill="url(#paint4_linear_1_2342)"/>
<path d="M87.2852 94.9989H91.8625C93.5953 94.9989 94.9998 93.5943 94.9998 91.8616V87.2843C94.9998 86.4278 94.244 85.757 93.3963 85.8819C91.4436 86.1692 89.3826 85.5327 87.9171 83.9723C85.6715 81.582 85.6715 77.8002 87.9171 75.4099C88.7434 74.5272 89.8088 73.9041 90.9834 73.6167L75.0441 57.677C73.7536 59.1072 73.2377 60.9886 73.5012 62.7784C73.6261 63.6259 72.9553 64.383 72.0989 64.383H67.5216C65.7887 64.383 64.3842 65.7875 64.3842 67.5204V72.0977C64.3842 72.9542 63.6272 73.6249 62.7795 73.5C60.9922 73.2369 59.1135 73.7511 57.6841 75.0378L73.6198 90.9737C73.9081 89.8025 74.5303 88.7404 75.4108 87.9162C77.8011 85.6706 81.5829 85.6706 83.9732 87.9162C85.5336 89.3815 86.1702 91.4427 85.8828 93.3954C85.7579 94.2431 86.4287 94.9989 87.2852 94.9989Z" fill="url(#paint5_linear_1_2342)"/>
<path d="M60 72.2998C66.793 72.2998 72.2998 66.793 72.2998 60C72.2998 53.207 66.793 47.7002 60 47.7002C53.207 47.7002 47.7002 53.207 47.7002 60C47.7002 66.793 53.207 72.2998 60 72.2998Z" fill="url(#paint6_linear_1_2342)"/>
<path d="M57.9933 65.843C56.9262 65.843 55.9228 65.4274 55.1683 64.6729L51.771 61.2756C51.0606 60.5653 51.0606 59.4135 51.771 58.703C52.4813 57.9926 53.6332 57.9926 54.3436 58.703L57.7409 62.1004C57.8274 62.1868 57.9259 62.205 57.9933 62.205C58.0607 62.205 58.1593 62.1868 58.2457 62.1004L65.6567 54.6896C66.3671 53.9791 67.5188 53.9791 68.2292 54.6896C68.9395 55.3999 68.9395 56.5517 68.2292 57.2621L60.8184 64.6729C60.0637 65.4274 59.0605 65.843 57.9933 65.843Z" fill="white"/>
<path d="M26.6841 83.972C28.1494 85.5325 30.2115 86.1689 32.1633 85.8816C33.011 85.7567 33.768 86.4275 33.768 87.284V91.8613C33.768 93.5941 35.1725 94.9987 36.9053 94.9987H41.4826C42.3391 94.9987 43.0099 94.2428 42.885 93.3951C42.5977 91.4424 43.2342 89.3814 44.7946 87.9159C47.1849 85.6703 50.9667 85.6703 53.357 87.9159C54.9174 89.3812 55.5539 91.4423 55.2666 93.3951C55.1417 94.2427 55.8125 94.9987 56.6689 94.9987H61.2463C62.9791 94.9987 64.3836 93.5941 64.3836 91.8613V87.284C64.3836 86.4275 63.6278 85.7567 62.7801 85.8816C60.8274 86.1689 58.7663 85.5325 57.3009 83.972C56.6269 83.2545 56.1341 82.3864 55.8633 81.4399H25.2465C25.5174 82.3863 26.0103 83.2544 26.6841 83.972Z" fill="url(#paint7_linear_1_2342)"/>
<path d="M57.0537 83.972C58.519 85.5325 60.5811 86.1689 62.5329 85.8816C63.3806 85.7567 64.1376 86.4275 64.1376 87.284V91.8613C64.1376 93.5941 65.5421 94.9987 67.2749 94.9987H71.8522C72.7087 94.9987 73.3795 94.2428 73.2546 93.3951C72.9673 91.4424 73.6038 89.3814 75.1642 87.9159C77.5545 85.6703 81.3363 85.6703 83.7266 87.9159C85.287 89.3812 85.9235 91.4423 85.6362 93.3951C85.5113 94.2427 86.1821 94.9987 87.0385 94.9987H91.6159C93.3487 94.9987 94.7532 93.5941 94.7532 91.8613V87.284C94.7532 86.4275 93.9974 85.7567 93.1497 85.8816C91.197 86.1689 89.1359 85.5325 87.6705 83.972C86.9965 83.2545 86.5037 82.3864 86.2329 81.4399H55.6161C55.8869 82.3864 56.3798 83.2545 57.0537 83.972Z" fill="url(#paint8_linear_1_2342)"/>
<path d="M79.604 40.3959C78.582 39.3739 78.582 37.7168 79.604 36.6947L84.621 31.6776C85.643 30.6556 87.3001 30.6556 88.3223 31.6776C89.3443 32.6996 89.3443 34.3567 88.3223 35.3788L83.3052 40.3959C82.283 41.4179 80.626 41.4179 79.604 40.3959Z" fill="url(#paint9_linear_1_2342)"/>
<path d="M69.1187 39.3006C67.6732 39.3006 66.5015 38.1288 66.5015 36.6834V29.5881C66.5015 28.1427 67.6732 26.9709 69.1187 26.9709C70.5641 26.9709 71.7358 28.1427 71.7358 29.5881V36.6832C71.7358 38.1288 70.5641 39.3006 69.1187 39.3006Z" fill="url(#paint10_linear_1_2342)"/>
<path d="M80.6993 50.8813C80.6993 49.4359 81.871 48.2642 83.3165 48.2642H90.4116C91.857 48.2642 93.0288 49.4359 93.0288 50.8813C93.0288 52.3268 91.857 53.4985 90.4116 53.4985H83.3165C81.871 53.4985 80.6993 52.3268 80.6993 50.8813Z" fill="url(#paint11_linear_1_2342)"/>
<defs>
<linearGradient id="paint0_linear_1_2342" x1="25" y1="25.001" x2="64.3841" y2="25.001" gradientUnits="userSpaceOnUse">
<stop stop-color="#7ACBFF"/>
<stop offset="1" stop-color="#45A2E0"/>
</linearGradient>
<linearGradient id="paint1_linear_1_2342" x1="44.8152" y1="53.9609" x2="44.8152" y2="64.6976" gradientUnits="userSpaceOnUse">
<stop stop-color="#2F73A0" stop-opacity="0"/>
<stop offset="1" stop-color="#2F73A0"/>
</linearGradient>
<linearGradient id="paint2_linear_1_2342" x1="25" y1="55.615" x2="64.3841" y2="55.615" gradientUnits="userSpaceOnUse">
<stop stop-color="#FFCE47"/>
<stop offset="1" stop-color="#FF9356"/>
</linearGradient>
<linearGradient id="paint3_linear_1_2342" x1="62.5594" y1="62.5583" x2="83.071" y2="83.0699" gradientUnits="userSpaceOnUse">
<stop stop-color="#FF755C"/>
<stop offset="1" stop-color="#FF4181"/>
</linearGradient>
<linearGradient id="paint4_linear_1_2342" x1="48.3391" y1="55.6155" x2="64.384" y2="55.6155" gradientUnits="userSpaceOnUse">
<stop stop-color="#FF9356" stop-opacity="0"/>
<stop offset="1" stop-color="#FF755C"/>
</linearGradient>
<linearGradient id="paint5_linear_1_2342" x1="57.6841" y1="57.677" x2="94.9998" y2="57.677" gradientUnits="userSpaceOnUse">
<stop stop-color="#843561" stop-opacity="0"/>
<stop offset="1" stop-color="#3A2F4D"/>
</linearGradient>
<linearGradient id="paint6_linear_1_2342" x1="54.7267" y1="54.7267" x2="66.4238" y2="66.4238" gradientUnits="userSpaceOnUse">
<stop stop-color="#E4E08E"/>
<stop offset="1" stop-color="#6FA953"/>
</linearGradient>
<linearGradient id="paint7_linear_1_2342" x1="25.2465" y1="81.4399" x2="64.3836" y2="81.4399" gradientUnits="userSpaceOnUse">
<stop stop-color="#FF9356" stop-opacity="0"/>
<stop offset="1" stop-color="#FF755C"/>
</linearGradient>
<linearGradient id="paint8_linear_1_2342" x1="55.6161" y1="81.4399" x2="94.7532" y2="81.4399" gradientUnits="userSpaceOnUse">
<stop stop-color="#843561" stop-opacity="0"/>
<stop offset="1" stop-color="#3A2F4D"/>
</linearGradient>
<linearGradient id="paint9_linear_1_2342" x1="84.2759" y1="36.4239" x2="82.4552" y2="34.6032" gradientUnits="userSpaceOnUse">
<stop stop-color="#6FA953"/>
<stop offset="1" stop-color="#43765A"/>
</linearGradient>
<linearGradient id="paint10_linear_1_2342" x1="66.5015" y1="26.9709" x2="71.7358" y2="26.9709" gradientUnits="userSpaceOnUse">
<stop stop-color="#FFCE47"/>
<stop offset="1" stop-color="#FF9356"/>
</linearGradient>
<linearGradient id="paint11_linear_1_2342" x1="80.6993" y1="48.2642" x2="93.0288" y2="48.2642" gradientUnits="userSpaceOnUse">
<stop stop-color="#7ACBFF"/>
<stop offset="1" stop-color="#45A2E0"/>
</linearGradient>
</defs>
</svg>
