<svg width="120" height="120" viewBox="0 0 120 120" fill="none" xmlns="http://www.w3.org/2000/svg">
<path d="M60 0L111.962 30V90L60 120L8.03848 90V30L60 0Z" fill="#FBFBFB"/>
<path d="M91.9954 79.25V41.75L59.5195 23L27.0435 41.75V79.25L59.5195 98L91.9954 79.25Z" fill="#CCEFFF"/>
<path d="M59.5195 23V98L91.9954 79.25V41.75L59.5195 23Z" fill="#ACE3FC"/>
<path d="M81.763 62.5522L59.5195 75.3944L39.8133 64.0171L37.616 67.8228L55.125 77.9316L39.9425 86.6973L44.337 89.2344L59.5195 80.4689L74.702 89.2344L79.0966 86.6973L63.9141 77.9316L83.9603 66.3579L81.763 62.5522Z" fill="#ACE3FC"/>
<path d="M83.9603 66.3579L81.763 62.5522L59.5195 75.3944V80.4689L74.702 89.2344L79.0966 86.6973L63.9141 77.9316L83.9603 66.3579Z" fill="#86D6F2"/>
<path d="M59.5195 23L27.0435 41.75V79.25L59.5195 60.5L91.9954 79.25V41.75L59.5195 23Z" fill="#7D8AFF"/>
<path d="M91.9954 79.25V41.75L59.5195 23V60.5L91.9954 79.25Z" fill="#6E76E5"/>
<path d="M47.0031 47.7563L49.2003 51.562L41.5888 55.9565L39.3917 52.1508L47.0031 47.7563Z" fill="#063E8B"/>
<path d="M35.5864 54.3486L37.7836 58.1543L30.4259 62.4023L28.2287 58.5966L35.5864 54.3486Z" fill="#063E8B"/>
<path d="M59.5195 40.5293L50.8093 45.56L53.0066 49.3657L59.5195 45.6054L66.0325 49.3657L68.2298 45.56L59.5195 40.5293Z" fill="#063E8B"/>
<path d="M90.8111 58.5974L88.6139 62.4031L81.2562 58.1551L83.4534 54.3494L90.8111 58.5974Z" fill="#032E68"/>
<path d="M72.0373 47.7573L79.6487 52.1518L77.4515 55.9574L69.8401 51.563L72.0373 47.7573Z" fill="#032E68"/>
<path d="M59.5195 40.5293V45.6054L66.0325 49.3657L68.2298 45.56L59.5195 40.5293Z" fill="#032E68"/>
</svg>
